/* XPM */
static char *_9e0c37f740b4856a51bb7748c3dded97jaNafCG7DAP6E1H[] = {
/* columns rows colors chars-per-pixel */
"64 64 173 2 ",
"   c None",
".  c #000B0F",
"X  c #030F13",
"o  c #071216",
"O  c #0B1516",
"+  c #0F1816",
"@  c #0B1619",
"#  c #0E191C",
"$  c #141B17",
"%  c #131B1C",
"&  c #1A1F19",
"*  c #181F17",
"=  c #1E2119",
"-  c #1D2416",
";  c #2B2F16",
":  c #262819",
">  c #332F1A",
",  c #343218",
"<  c #383B16",
"1  c #2D3215",
"2  c #131D21",
"3  c #162124",
"4  c #192327",
"5  c #1C262A",
"6  c #1F292C",
"7  c #212B2E",
"8  c #242E32",
"9  c #273134",
"0  c #2C3639",
"q  c #2C3539",
"w  c #323B3E",
"e  c #433B1B",
"r  c #453D1B",
"t  c #453721",
"y  c #474815",
"u  c #424018",
"i  c #564B19",
"p  c #565216",
"a  c #644F1F",
"s  c #64531B",
"d  c #675B19",
"f  c #735D1E",
"g  c #746D0F",
"h  c #7A780F",
"j  c #666116",
"k  c #766619",
"l  c #777111",
"z  c #5E4D20",
"x  c #644D21",
"c  c #6D5324",
"v  c #765B23",
"b  c #353E41",
"n  c #374043",
"m  c #3A4346",
"M  c #3E4649",
"N  c #424B4E",
"B  c #464E51",
"V  c #495154",
"C  c #4E5658",
"Z  c #535B5D",
"A  c #5B6265",
"S  c #5E6668",
"D  c #636A6D",
"F  c #60676A",
"G  c #686E71",
"H  c #6C7274",
"J  c #6F7678",
"K  c #747A7C",
"L  c #8A6D1E",
"P  c #877D11",
"I  c #9B7D1B",
"U  c #96781D",
"Y  c #A17D1F",
"T  c #8A6625",
"R  c #8D6A23",
"E  c #876825",
"W  c #986F26",
"Q  c #946D27",
"!  c #9C7224",
"~  c #927320",
"^  c #AA7D27",
"/  c #95910D",
"(  c #9B821B",
")  c #9D8819",
"_  c #AB970E",
"`  c #AE9B0C",
"'  c #B09F0A",
"]  c #A38C14",
"[  c #A8871C",
"{  c #A69313",
"}  c #AB9214",
"|  c #AF9D11",
" . c #B69B18",
".. c #B8A50C",
"X. c #A98525",
"o. c #B68429",
"O. c #BA9621",
"+. c #C19F1F",
"@. c #CBAD19",
"#. c #C4A31C",
"$. c #DBAC1D",
"%. c #D7A61E",
"&. c #CAB511",
"*. c #D2B516",
"=. c #DDB515",
"-. c #DCBF12",
";. c #DFB219",
":. c #D5BA14",
">. c #D7BE09",
",. c #E1B716",
"<. c #E5BC14",
"1. c #E3B818",
"2. c #C48B2C",
"3. c #C98F2B",
"4. c #C58E27",
"5. c #CD9427",
"6. c #CC9A24",
"7. c #C7912A",
"8. c #CC9129",
"9. c #C39322",
"0. c #D09626",
"q. c #D39C24",
"w. c #D19529",
"e. c #D5A221",
"r. c #D8A521",
"t. c #DDC411",
"y. c #EECC0E",
"u. c #E9C70E",
"i. c #F2CC0B",
"p. c #E7D10C",
"a. c #EDDA08",
"s. c #F7D507",
"d. c #FBDC04",
"f. c #F4D40B",
"g. c #F5D809",
"h. c #EBC411",
"j. c #E9C612",
"k. c #F4E206",
"l. c #FCE404",
"z. c #FCED02",
"x. c #F7E804",
"c. c #787E80",
"v. c #7C8284",
"b. c #818789",
"n. c #858A8C",
"m. c #8A8F91",
"M. c #8D9294",
"N. c #969A9C",
"B. c #939799",
"V. c #9B9FA1",
"C. c #9DA1A3",
"Z. c #A1A5A6",
"A. c #A5A9AA",
"S. c #A9ACAE",
"D. c #A3A7A8",
"F. c #ADB1B2",
"G. c #B1B4B6",
"H. c #B6B9BB",
"J. c #BABCBD",
"K. c #B4B7B8",
"L. c #BCBFC0",
"P. c #BEC1C2",
"I. c #C2C5C5",
"U. c #C7C9CA",
"Y. c #CACDCD",
"T. c #CDCFD0",
"R. c #CFD1D1",
"E. c #D2D4D5",
"W. c #D6D8D8",
"Q. c #DBDDDD",
"!. c #DEDFE0",
"~. c #DFE1E1",
"^. c #E0E1E2",
/* pixels */
"                                                    o o @ o o o o o o o o o                                                     ",
"                                            o o o o @ o o o o o o o o o o o o o o o                                             ",
"                                        o o o o o o o o o o o o o o o o o o o o o o o o                                         ",
"                                  o o o o o o o o o o o o o o o o o o o o o o o o o o o o o o                                   ",
"                                o o o o o o o o o o o o o o o o o o o o o o o o o o o o o o o o                                 ",
"                            o o o o o o o o o o o o o o o o o o o o o o o o o o o o o O o o o o o o                             ",
"                          o o o o o o o o o o o o o o o o o o o o o o o o o o o o o o o o o o o o o o                           ",
"                      o o o o o o o o o o o o o o o o o o o o o o o o o @ o o o o o o o o o o o o o o o o                       ",
"                    o o o o o o o o o o o o o @ o o o o o o o o o o o o o o o o o o o o o o o o o o o o o o                     ",
"                  o o o o o o o o o o o o o o o o o o o o o o o o o o o o o o o o o o @ o o o o o o o o o o o                   ",
"                o o o o o o o o o o o o o o o o o o o o o o o o o o o o o o o o o o o o o O o o o o o o o o o o                 ",
"              o o o o o o o o o o o o o o o o o o o o o o o o o o o o o o o o o o o o o o o o o o o o o o o o o o               ",
"              o o o o o o o o o o o o o o o o o o o o o o o o o o o o o o O o o o o o o o o o o o o o o o o o o o               ",
"            o o o o o o o O o o o o o o o o o o o o o o o o o o o o o o o o o o o o o o o o o o o o o o o o o o o o             ",
"          o o o o o o o o o o o o o o o o o o o o o o o o o o X o o o o o o o o o o o o o o o o o o o o o o o o o o o           ",
"          o o o o o o o @ # # # # # % # # # # # # # # % # # # % # # # # # # # # # # # # # # # # # # # @ o o @ o o o o           ",
"        o o o o o o o A H.P.P.P.P.P.L.P.P.P.P.P.P.P.P.P.P.P.I.L.P.P.P.P.P.P.P.P.P.P.L.L.P.P.P.P.P.P.P.Z.b o o o o o o o         ",
"      o o o o o o o q Q.C.v.v.v.v.v.v.v.v.v.v.v.v.v.v.v.v.v.v.v.v.v.v.v.v.v.v.v.v.v.v.v.v.v.v.v.v.v.v.J.I.4 o o o o o o o       ",
"      o o o o o o o b ~.V X X X X X X X X . X X X X X X X X X X X X . X o . . . o . . o X X X X X X X m !.b X o o o o o o       ",
"      o o o o o o o @ Z.H.% X o o O o O O O O O o o @ @ o @ o O O O O O + + O O O O O O O O O O o o o K E.7 X o o o o o o       ",
"    o o o o o o o o X b !.D X o > T R R R R R T T T T T R R ~ U I Y ] ] _ _ ` ' ..` ` _ } ] ] d o X q W.J o o o o o o o o o     ",
"    o o o O o o o o o o b.T.6 X $ ^ w.8.8.8.3.3.3.2.2.2.2.7.6.q.%.$.,.<.h.i.s.d.l.d.d.s.f.f.j.< o o N.I.3 o o o o o o o o o     ",
"  o o o o o o o o o o o 8 R.n.o X e 4.8.8.3.3.3.3.2.o.2.2.2.2.7.0.q.$.$.,.<.u.i.s.d.l.d.d.s.P o X N ~.Z X o o o o o o o o o o   ",
"  o o o o o o o o o o o X D Q.b X O L 0.w.5.3.3.3.3.3.2.2.2.2.o.4.0.+.%.$.;.<.h.y.i.d.d.d.>.1 X # K.S.# o o o o o o o o o o o   ",
"  o o o o o o o o O o o o 2 H.D.O o > 4.q.5.3.3.3.3.8.3.3.2.2.2.2.2.7.q.e.$.$.,.<.u.i.s.d.g o X F Q.m X o o o o o o o o o o o   ",
"  o o o o o o o o o o o o X B ~.C X O f %.q.0.5.w.^ v v c W 2.2.2.2.^ v f f I $.;.<.h.i...* X 5 Y.m.o o o o o o o o O o o o o   ",
"o o o o o o o o o o o o o o @ V.L.3 . :  .$.r.6.w.^ & X X x 3.2.2.2.Q O o o E %.%.;.<.=.i O X v.E.8 o o o o o o o o o o o o o o ",
"o o o o o o o o o o o o o o X w Q.H . o ; s I 6.q.8.a X X a 3.3.2.2.Q O X : o.6.6.[ k < O . w Q.H X o o o o o o o o o o o o o o ",
"@ o o o o o o o o o o o o o o X v.E.8 o X X O , L 9.^ + X a 8.3.3.3.W + o c o.R e $ X o o @ C.J.2 o o o o o o o o o @ o o o o o ",
"o o o o o o o o o o o o o o o o 6 U.M.O o o o X o > L e X a w.3.3.3.W O & v t # o o o o X V ^.C X o o o o o o o o o o o o o o o ",
"o o o o o o o o o o o o o o o o o A Q.m X o o o o X $ : X c 5.8.8.w.W @ & = o o o o o o 2 J.Z.@ o o o o o o o o o o o o o o o o ",
"o o o o o o o o o o o o o o o @ o # G.S.# o o o o o X o X s q.5.8.8.! @ o o o o o o o o D Q.w X o o o o o o o o o o o o o o o o ",
"o o o o o o o o o o o o o o o o X o M ~.Z o o o o o o o X j r.e.0.0.! + o o o o o o X 8 R.b.o o o o o o o o o o o o o o o o o o ",
"O o o o o o o o o o o o o o o o o o o B.P.4 o o o o o o X k 1.r.r.q.! + o o o o o o o n.Y.7 o o o o o o o o o o o o o o o o o o ",
"o o o o o o o o o o o o o o o o o o o 9 Q.K X o o o o o o k j.j.;.$.^ O o o o o o X b !.F X o o o o o o o o o o o o o o o o o @ ",
"o o o o o o o o o o o o o o @ o o o o o K W.0 X o o o o o l g.j.<.1.[ + o o o o o @ S.H.2 X o o o o o o o o o o o o o o o o o o ",
"o o o o o o o o o o o o o o o o o o o o 5 I.N.@ o o @ o o h x.g.y.j.} $ o O O o X Z ~.B X o o o o o o o o o o o o o o o o o o o ",
"o o o o o o o o o o o o o o o o o o o o X Z ~.M o o y < o h z.x.k.f.| O - i $ o 2 I.N.o o o o o o o o o o o o o o o o o o o o o ",
"  o o o o o o o @ o o o o o o o o o o o X # S.G.# X ; { j h x.x.z.l...p | p o X J Q.0 o o o o o o o o o o o o o o o o o o o o   ",
"  o o o o o o o o o o o o o o o o o o o X o m ~.S o X j *.&.p.a.x.z.a.a.| + X 9 W.c.X o o o o o o o o o o o o o o o o o o o o   ",
"  o o o o O o o o o o o o o o o o o o o o o o M.T.5 o $ ) *.t.t.p.k.z.a.y X o M.U.5 X o o o o o o o o o o o o o o o o o o o o   ",
"  o o o o o o o o o o o o o o o o o o o o o o 9 R.v.o o u  .@.t.j.p.k./ o X M ^.A X o o o o o o o o o o o o o o o o o o o o o   ",
"    o o o o o o o o o o o o o o o o o o o o o X H W.w o # k 6.#.*.t.&.1 X # F.F.# o o o @ o o o o o o o o o o o o o O o o o     ",
"    o o o o o o o o o o o o o o o o o o o o o o 2 P.V.o o ; X.O.+.@.j o X A ^.M X o o o o o o o o o o o o o o o o o o o o o     ",
"      o o o o o o o o o o o o o o o o o o o o o o C ~.V o o z o.O.( % X 5 U.M.o o o o o o o o o o o o O o o o o o o o o o       ",
"      o o o o o o o o o o o o o o o o o o o o o X @ C.L.2 X = T X.< X X c.W.q X o o o o o o o o o o o o o @ o o o o o o o       ",
"      o o o o o o o o o o o o o o o o o o o o o o o b ~.D o o t c @ X q W.K X o o o o o o o o o o o o o o o o o o o o o o       ",
"        o o o o o o o o o o o o o o o o o o o o o X o v.R.7 X + 2 o @ V.P.2 X o o o o o o o o o o o o o o o o o o o o o         ",
"          o o @ o o o o o o o o o o o o o o o o o o o 7 T.n.o o o X N ~.Z X o @ o o o o o o o o o o o o o o o o o o o           ",
"          o o o o o o o o o o o o o o o o o o o o o o X D Q.b X o 2 K.A.@ o o o O o o o o o o o o o o o o o o o o o o           ",
"            o o o o o o o o o o o o o o o o o o o o o o % H.A.@ X S !.m X o o o o o o o o o o o o o o o o o o o o o             ",
"              o o o o o o o o o o o o o O o o o o o o o o N ^.G M E.n.o o o o o o o o o o o o o o o o o o o o o o               ",
"              o o o o o o o o o o o o o o o @ o o o o o o @ v.^.^.F.5 X o o o o o o o o o o o o o o o o o o o o o               ",
"                o o o o o o o o o o o o o o o o o o o o o o @ w M 2 o o o o o o o o o o o o o o o o o o o @ o o                 ",
"                  o o o o o o o o o o o o o o o o o o o o o o X X o o o o o o o o o o o o o o o o o o o o o o                   ",
"                    o o o O o o o o o o o o o o o o o o o o o o o o o o o o o o o o o o o o o o o o o o o o                     ",
"                      o o o o o o o o o o o o o o o o o o O o o o o o o o o o o o o o o o o o o o o o o o                       ",
"                          o o o o o o o o o o o o o o o o o o o o o o o o o o o o o o o o o o o o o o                           ",
"                            o o o o o o o o o o o o o o o o o o o o o o o o o o o o o o o o o @ O o                             ",
"                                o o o o o o o o o o o o o o o o o o o o o o o o o o o o o o o o                                 ",
"                                  o o o o @ o o o o o o o o o o o o o o o o o o o o o o o o o                                   ",
"                                        o o o o o o o o o o o o o o o o o o o o o o o o                                         ",
"                                            o o o o o o o o o o o o o o o o o o o o                                             ",
"                                                    o o o o o o o o o o o O                                                     "
};
