/* XPM */
static char *_6848c0f764144f5b8713f8378605707WQgSoXpMQ94D8dqw[] = {
/* columns rows colors chars-per-pixel */
"32 32 228 2 ",
"   c None",
".  c #040F13",
"X  c #020E16",
"o  c #030F16",
"O  c #051013",
"+  c #041014",
"@  c #051014",
"#  c #051015",
"$  c #051115",
"%  c #061115",
"&  c #071214",
"*  c #051016",
"=  c #061116",
"-  c #071216",
";  c #0B1413",
":  c #091315",
">  c #081316",
",  c #081317",
"<  c #091417",
"1  c #091418",
"2  c #0A1519",
"3  c #0B1519",
"4  c #0B1619",
"5  c #0B161A",
"6  c #0D171B",
"7  c #0F191C",
"8  c #0F1A1E",
"9  c #101817",
"0  c #111A17",
"q  c #1A1D17",
"w  c #151D19",
"e  c #151E19",
"r  c #171E18",
"t  c #101A1E",
"y  c #101B1F",
"u  c #171E1D",
"i  c #1F2417",
"p  c #1E2119",
"a  c #1C251B",
"s  c #1A211D",
"d  c #19221D",
"f  c #1B231C",
"g  c #1B221D",
"h  c #19201E",
"j  c #1A201E",
"k  c #1C241C",
"l  c #212613",
"z  c #222316",
"x  c #202517",
"c  c #202716",
"v  c #242B13",
"b  c #232318",
"n  c #252718",
"m  c #322E1A",
"M  c #343216",
"N  c #3D3D11",
"B  c #3C351B",
"V  c #3A331D",
"C  c #3E351C",
"Z  c #111C20",
"A  c #131E22",
"S  c #141F22",
"D  c #151F23",
"F  c #161F22",
"G  c #172125",
"H  c #182327",
"J  c #192327",
"K  c #1A2426",
"L  c #1C2629",
"P  c #1C262A",
"I  c #1D272B",
"U  c #1E272A",
"Y  c #1E282C",
"T  c #202A2E",
"R  c #222C2F",
"E  c #232C30",
"W  c #273135",
"Q  c #283237",
"!  c #2A3336",
"~  c #2B3438",
"^  c #2B353A",
"/  c #2E373C",
"(  c #2F383B",
")  c #30393D",
"_  c #433F17",
"`  c #41391A",
"'  c #464514",
"]  c #474714",
"[  c #52451B",
"{  c #51421C",
"}  c #54431E",
"|  c #57461E",
" . c #59471D",
".. c #5C4D19",
"X. c #4E5111",
"o. c #5B5812",
"O. c #5D501A",
"+. c #635C13",
"@. c #655D15",
"#. c #64521C",
"$. c #766B14",
"%. c #7E691A",
"&. c #564520",
"*. c #665021",
"=. c #6A5521",
"-. c #363F42",
";. c #3D4548",
":. c #3E464A",
">. c #3E474A",
",. c #40484B",
"<. c #414A4E",
"1. c #444D4F",
"2. c #424B50",
"3. c #464E51",
"4. c #485053",
"5. c #4A5255",
"6. c #4B5358",
"7. c #4E5659",
"8. c #535B5E",
"9. c #555D5F",
"0. c #555D60",
"q. c #575E61",
"w. c #575F61",
"e. c #596163",
"r. c #5A6265",
"t. c #5B6365",
"y. c #5D6467",
"u. c #60676A",
"i. c #62696E",
"p. c #646C6F",
"a. c #666C6F",
"s. c #666D6F",
"d. c #686F71",
"f. c #686F73",
"g. c #6B7274",
"h. c #6D7376",
"j. c #6D7476",
"k. c #72797B",
"l. c #747A7C",
"z. c #8D7F0C",
"x. c #927C16",
"c. c #9C7C1E",
"v. c #866D20",
"b. c #966E25",
"n. c #9D7227",
"m. c #9F7326",
"M. c #9D7526",
"N. c #9B7128",
"B. c #A17526",
"V. c #A07427",
"C. c #A47725",
"Z. c #A57F21",
"A. c #A97F26",
"S. c #968218",
"D. c #AD8B1B",
"F. c #A29313",
"G. c #B59715",
"H. c #B4941E",
"J. c #BEA20F",
"K. c #BEAF0C",
"L. c #AE8423",
"P. c #B28224",
"I. c #B88C20",
"U. c #BF8C25",
"Y. c #C1981D",
"T. c #C6AD09",
"R. c #C5AE0A",
"E. c #C2A90F",
"W. c #C9B307",
"Q. c #CAA21A",
"!. c #D5A71D",
"~. c #DAA91F",
"^. c #CDB017",
"/. c #DABF13",
"(. c #E6B917",
"). c #E8BE13",
"_. c #E0B51A",
"`. c #C08A28",
"'. c #C28A2A",
"]. c #C58D29",
"[. c #C18A2C",
"{. c #C28B2D",
"}. c #C58C2C",
"|. c #C78D2D",
" X c #C68F2C",
".X c #C98F2A",
"XX c #CA8F2B",
"oX c #C98F2C",
"OX c #C99226",
"+X c #CE9926",
"@X c #CC9229",
"#X c #CC912A",
"$X c #D39C23",
"%X c #D39B24",
"&X c #D09528",
"*X c #D09429",
"=X c #CEC209",
"-X c #EFC70F",
";X c #E8CB08",
":X c #F5CF0B",
">X c #ECD70A",
",X c #ECDB08",
"<X c #F0DD07",
"1X c #FFDE03",
"2X c #F0D20E",
"3X c #F8D508",
"4X c #E3C312",
"5X c #F8E605",
"6X c #787E80",
"7X c #787F81",
"8X c #797F81",
"9X c #7B8083",
"0X c #7C8284",
"qX c #7D8385",
"wX c #7E8385",
"eX c #7F8486",
"rX c #82888A",
"tX c #83898B",
"yX c #868B8D",
"uX c #878C8E",
"iX c #878D8F",
"pX c #888E90",
"aX c #898E90",
"sX c #898F90",
"dX c #8B9092",
"fX c #8B9192",
"gX c #8D9293",
"hX c #8E9395",
/* pixels */
"                        - - - - - - - -                         ",
"                  - - - - - - - - - - - - - -                   ",
"              - - - - - - - - - - - - - - - - - -               ",
"            - - - - - - - - - - - - - - - - - - - -             ",
"          - - - - - - - - - - - - - - - - - - - - - -           ",
"        - - - - - - - - - - - - - - - - - - - - - - - -         ",
"      - - - - - - - - - - O - - - - - - - . - - - - - - -       ",
"    - - - , H L L L K L L L L L L L K L L L L L L G - - - -     ",
"    - - . w.hXtXtXtXtXtXyXyXrXtXtXtXtXtXtXtXtXtXtXfX5.. , -     ",
"  - - - - g.e.2 u h h h u u u h k h k a k a a h 2 5.l.. - - -   ",
"  - - - - T dXH { C.B.m.m.N.M.Z.D.G.J.T.W.T.E.$.y rX-.. - - -   ",
"  - - - - . t.p.z P.*X#XoXoX X X+X~.(.-X3X1X;XN 5.k., - - - -   ",
"- - - - - - A aXQ ..$X@X`.b.B.[.[.A.c.Q.).:Xz.H fXT - - - - - - ",
"- - - - - - . 1.7Xr %.I.`.m B ]. X&.k L.Y.x.l i.y.. - - - - - - ",
"- - - - - - - 2 wX:.O i #.[ B ]..X} V *.n - W aXS - - - - - - - ",
"- - - - - - - . ( uXy - O 0 ` OX#X .9 , - 2 l.3.. - - - - - - - ",
"- - - - - - - - - g.9.- , X _ !.%X .. , . :.rX3 , , - - - - - - ",
"- - - - - - - - - L dXL - X ] 4X_...X - y yX^ . - , - - - - - - ",
"- - - - - - - - - . 9.g.; i X.<X2X@.i ; 8.h.. - - - - - - - - - ",
"- - - - - - - - - - y uX^ ] F.,X5XK.+.L fXL - - - - - - - - - - ",
"  - - - - - - - - - . ;.wXw S./.>X=Xv f.q.. - - - - - - - - -   ",
"  - - - - - - - - - - , 7X3.M H.^.o.^ aXy - - - - - - - - - -   ",
"  - - - - - - - - - - + Q aXS =.v.w 0X,.. - - - - - - - - - -   ",
"    - - - - - - - - - - . a.t.q b <.8X2 , - - - - - - - - -     ",
"    - - - - - - - - - - - H dXT 7 aX~ . - - - - - - - - - -     ",
"      - - - - - - - - - - . 7.9Xd.p.- - - - - - - - - - -       ",
"        - - - - - - - - - - 3 y.j.S - - - - - - - - - -         ",
"          - - - - - - - - - , - . - - - - - - - - - -           ",
"            - - - - - - - - - - - - - - - - - - - -             ",
"              - - - - - - - - - - - - - - - - - -               ",
"                  - - - - - - - - - - - - - -                   ",
"                        - - - - - - - -                         "
};
