/* XPM */
static char *_55fdda1c6914f778852b16217967c2drV7iPXhhMrYotXTO[] = {
/* columns rows colors chars-per-pixel */
"16 16 86 1 ",
"  c None",
". c #040F14",
"X c #051014",
"o c #051115",
"O c #061014",
"+ c #061115",
"@ c #061216",
"# c #071216",
"$ c #091418",
"% c #0A1519",
"& c #0C161A",
"* c #0C171B",
"= c #0F191D",
"- c #22261E",
"; c #2C2A1A",
": c #2F2D18",
"> c #131E21",
", c #151F23",
"< c #182226",
"1 c #1A2428",
"2 c #1B2529",
"3 c #1C262A",
"4 c #1D272B",
"5 c #1C272C",
"6 c #1D272C",
"7 c #1F292D",
"8 c #242921",
"9 c #363A24",
"0 c #323829",
"q c #232D30",
"w c #252F33",
"e c #273034",
"r c #2C3539",
"t c #2F383C",
"y c #30393D",
"u c #333C3F",
"i c #4B4830",
"p c #4A4837",
"a c #5F5E34",
"s c #55533F",
"d c #665120",
"f c #353E42",
"g c #364044",
"h c #3C4448",
"j c #3C454A",
"k c #3F484C",
"l c #4B4F4B",
"z c #4F5449",
"x c #4F524D",
"c c #52564B",
"v c #50534C",
"b c #50524D",
"n c #545949",
"m c #545A4C",
"M c #444D51",
"N c #495152",
"B c #485054",
"V c #4A5254",
"C c #4A5256",
"Z c #4C5457",
"A c #4F575A",
"S c #4F575B",
"D c #505652",
"F c #545B5D",
"G c #575E60",
"H c #837710",
"J c #8E7917",
"K c #95781C",
"L c #97791C",
"P c #A67D1F",
"I c #846421",
"U c #8D6924",
"Y c #956E23",
"T c #9B7127",
"R c #A47626",
"E c #A37827",
"W c #A57A25",
"Q c #AC7C25",
"! c #938218",
"~ c #B28C1C",
"^ c #AC9D10",
"/ c #BD9D12",
"( c #B0A30D",
") c #C3A40F",
"_ c #C0AF0C",
"` c #D3B807",
/* pixels */
"     ######     ",
"   ##########   ",
"  ###.########  ",
" #&2444444252%# ",
" #yFxxxvcnnzFr# ",
"##<VdQRW~)`HV4##",
"##.gsPYTEK/ahX##",
"###*Z8:IU;-Z>###",
"###.rh.JK#fu####",
"####$C0(_9C&####",
"#####4D!^mw.####",
" #####jpiM##### ",
" #####>SS<##### ",
"  #####qe#####  ",
"   ##########   ",
"     ######     "
};
